<?xml version="1.0" encoding="iso-8859-1"?>
<!-- Uploaded to: SVG Repo, www.svgrepo.com, Generator: SVG Repo Mixer Tools -->
<svg height="800px" width="800px" version="1.1" id="Layer_1" xmlns="http://www.w3.org/2000/svg" xmlns:xlink="http://www.w3.org/1999/xlink" 
	 viewBox="0 0 512.001 512.001" xml:space="preserve">
<path style="fill:#DF4D60;" d="M378.359,111.867c82.07-38.256,146.688,37.227,114.605,79.226c-2.323,3.04-4.97,5.583-7.813,7.617
	c-4.704,3.363-9.963,5.363-15.302,6.01c-15.742,1.907-32.107-7.963-36.441-29.46c-0.45-2.219-0.774-4.577-0.947-7.05
	C429.177,122.166,378.359,111.867,378.359,111.867z"/>
<path style="fill:#FB7B76;" d="M469.848,204.721c-0.589,1.999-1.433,3.976-2.543,5.917c-19.821,34.719-91.443,11.904-88.935-56.551
	c0,0,22.064,32.292,55.036,21.174C437.741,196.758,454.107,206.627,469.848,204.721z"/>
<path style="fill:#FFF3E6;" d="M427.12,281.497c1.26,11.476-9.615,28.616-24.029,45.814c-4.323,5.166-9.084,10.043-14.239,14.632
	h-0.012c-1.11,0.243-28.928,6.091-100.274-20.792h-0.012c-6.276-21.427-12.887-32.789-32.557-32.789
	c11.557,0,22.71-0.092,33.39-0.243c0.301,11.338,9.593,20.445,21,20.445c11.615,0,21.023-9.419,21.023-21.023
	c0-0.15,0-0.301-0.012-0.45h0.012C388.541,285.173,424.901,281.705,427.12,281.497z"/>
<path style="fill:#DF4D60;" d="M425.733,276.782c0.751,1.433,1.202,3.016,1.387,4.716c-2.219,0.208-38.579,3.675-95.708,5.594
	h-0.012c-0.232-11.396-9.546-20.561-21.011-20.561c-11.604,0-21.012,9.408-21.012,21.012c0,0.196,0,0.381,0.012,0.578
	c-10.679,0.15-21.832,0.243-33.39,0.243c-11.258,0-22.133-0.081-32.569-0.232h-0.012c0.012-0.197,0.012-0.393,0.012-0.589
	c0-11.604-9.408-21.012-21.011-21.012c-11.465,0-20.781,9.188-21,20.596c-57.591-1.918-94.298-5.408-96.54-5.628
	c0.185-1.699,0.635-3.282,1.387-4.716c14.713-28.131,57.891-71.055,169.734-71.055S411.02,248.651,425.733,276.782z"/>
<path style="fill:#FFF3E6;" d="M288.568,321.152c71.344,26.883,99.164,21.034,100.274,20.792
	c-21.786,19.393-50.564,33.424-82.532,40.659v-0.012c-8.9-25.369-13.233-46.022-17.752-61.44H288.568z"/>
<path style="fill:#FBAEAB;" d="M331.401,287.091c0.012,0.15,0.012,0.301,0.012,0.45c0,11.604-9.408,21.023-21.023,21.023
	c-11.407,0-20.7-9.108-21-20.445c-0.012-0.196-0.012-0.381-0.012-0.578c0-11.604,9.408-21.012,21.012-21.012
	C321.854,266.531,331.169,275.696,331.401,287.091z"/>
<path style="fill:#F0DF9E;" d="M306.309,382.592v0.012c-16.123,3.641-33.055,5.559-50.31,5.559c-17.267,0-34.198-1.918-50.322-5.571
	c8.9-25.369,13.233-46.022,17.752-61.44c0.878-3.005,1.768-5.801,2.693-8.403c5.698-15.984,12.956-24.387,29.877-24.387
	c19.671,0,26.281,11.361,32.558,32.789C293.076,336.57,297.409,357.223,306.309,382.592z"/>
<path style="fill:#FFF3E6;" d="M223.43,288.131c10.436,0.15,21.312,0.232,32.569,0.232c-16.92,0-24.178,8.403-29.877,24.387
	c-0.925,2.6-1.814,5.398-2.693,8.403c-71.83,27.067-99.533,20.954-100.284,20.781c-0.012,0-0.012,0-0.012,0
	c-5.155-4.577-9.904-9.466-14.227-14.62c-14.412-17.198-25.288-34.338-24.029-45.814c2.242,0.22,38.949,3.71,96.54,5.628
	c-0.012,0.139-0.012,0.277-0.012,0.416c0,11.604,9.407,21.023,21.011,21.023c11.407,0,20.688-9.108,21-20.433h0.012V288.131z"/>
<path style="fill:#FBAEAB;" d="M223.43,287.542c0,0.196,0,0.393-0.012,0.589c-0.312,11.327-9.593,20.433-21,20.433
	c-11.604,0-21.011-9.419-21.011-21.023c0-0.139,0-0.277,0.012-0.416c0.22-11.407,9.535-20.596,21-20.596
	C214.023,266.531,223.43,275.939,223.43,287.542z"/>
<path style="fill:#FFF3E6;" d="M223.43,321.152c-4.519,15.418-8.853,36.071-17.752,61.44c-31.968-7.224-60.746-21.254-82.532-40.659
	C123.897,342.105,151.6,348.219,223.43,321.152z"/>
<path style="fill:#FB7B76;" d="M133.628,154.087c2.508,68.455-69.114,91.27-88.935,56.551c-1.11-1.942-1.953-3.918-2.543-5.917
	c15.742,1.907,32.107-7.963,36.441-29.46C111.565,186.379,133.628,154.087,133.628,154.087z"/>
<path style="fill:#DF4D60;" d="M133.639,111.867c0,0-50.819,10.297-54.101,56.343c-0.173,2.474-0.497,4.831-0.947,7.05
	c-4.335,21.498-20.7,31.367-36.441,29.46c-5.339-0.647-10.598-2.647-15.302-6.01c-2.843-2.034-5.49-4.577-7.813-7.617
	C-13.048,149.095,51.57,73.613,133.639,111.867z"/>
<path d="M314.942,199.603c-5.782-0.954-11.253,2.963-12.209,8.751c-0.955,5.788,2.963,11.254,8.751,12.209
	c0.642,0.106,1.281,0.213,1.916,0.324c0.613,0.106,1.221,0.157,1.824,0.157c5.071,0,9.559-3.645,10.453-8.811
	c1.001-5.78-2.874-11.277-8.654-12.277C316.332,199.835,315.639,199.717,314.942,199.603z"/>
<path d="M13.649,201.124c-12.141,25.26-13.687,48.134-4.57,68.086c17.935,39.253,70.662,50.801,72.898,51.273
	c0.3,0.064,0.598,0.104,0.896,0.141c-50.193,15.132-50.201,68.329-50.201,90.006c0,5.866,4.755,10.621,10.621,10.621
	s10.621-4.755,10.621-10.621c0-40.893,8.69-68.923,50.364-72.462c3.697,4.096,7.651,8.019,11.801,11.706
	c0.046,0.041,0.096,0.075,0.142,0.115c0.028,0.023,0.056,0.046,0.084,0.069c5.904,5.24,12.284,10.105,19.072,14.583
	c-8.768,2.687-15.915,6.671-21.537,12.007c-8.904,8.451-13.419,19.884-13.419,33.982c0,5.866,4.755,10.621,10.621,10.621
	s10.621-4.755,10.621-10.621c0-8.625,0.006-28.769,46.04-28.936c11.2,4.637,23.068,8.407,35.461,11.217
	c0.025,0.006,0.051,0.012,0.076,0.018c0.03,0.006,0.058,0.014,0.087,0.021c17.088,3.871,34.808,5.833,52.668,5.833
	c17.831,0,35.545-1.959,52.655-5.82c12.457-2.819,24.383-6.609,35.636-11.269c46.036,0.166,46.043,20.312,46.043,28.936
	c0,5.866,4.755,10.621,10.621,10.621s10.621-4.755,10.621-10.621c0-14.098-4.515-25.53-13.419-33.982
	c-5.623-5.336-12.77-9.321-21.54-12.008c6.67-4.399,12.94-9.175,18.756-14.308c0.285-0.221,0.554-0.459,0.815-0.706
	c4.093-3.661,7.961-7.499,11.536-11.458c41.671,3.54,50.36,31.569,50.36,72.461c0,5.866,4.755,10.621,10.621,10.621
	c5.866,0,10.621-4.755,10.621-10.621c0-21.677-0.007-74.874-50.201-90.006c0.298-0.037,0.597-0.078,0.896-0.141
	c2.236-0.473,54.963-12.02,72.898-51.273c9.117-19.953,7.571-42.826-4.57-68.087c1.062-1.144,2.095-2.324,3.056-3.581
	c15.843-20.739,13.781-49.434-5.253-73.1c-23.059-28.673-69.812-46.657-122.279-22.201c-4.144,1.932-6.57,6.304-6.046,10.846
	c0.524,4.543,3.915,8.244,8.39,9.183c1.721,0.36,41.399,9.106,45.428,44.588c-20.251,1.288-33.883-17.874-34.503-18.764
	c-2.587-3.786-7.314-5.485-11.72-4.211s-7.497,5.232-7.664,9.815c-1.655,45.164,25.595,73.358,53.335,81.266
	c5.635,1.607,11.18,2.386,16.498,2.386c16.65,0,31.059-7.639,38.939-21.442c0.369-0.646,0.717-1.299,1.046-1.959
	c0.965-0.272,1.92-0.578,2.867-0.917c8.124,18.151,9.216,34.027,3.186,47.284c-9.541,20.974-34.612,31.983-48.463,36.629
	c1.966-5.373,2.832-10.255,2.647-14.734c0.016-0.24,0.034-0.48,0.034-0.724c0-1.073-0.17-2.103-0.465-3.078
	c-0.437-2.331-1.178-4.531-2.235-6.548c-8.94-17.092-32.358-48.275-88.766-65.091c-5.622-1.676-11.537,1.523-13.213,7.144
	c-1.676,5.622,1.523,11.537,7.144,13.213c39.354,11.731,59.789,30.759,70.128,45.112c-14.892,1.14-39.183,2.741-70.55,3.923
	c-4.614-11.81-16.173-20.252-29.499-20.252c-13.972,0-25.85,9.11-30.026,21.7c-8.318,0.088-16.356,0.132-24.363,0.132
	c-7.892,0-15.778-0.041-23.551-0.122c-4.173-12.595-16.053-21.71-30.03-21.71c-13.336,0-24.894,8.457-29.499,20.287
	c-31.761-1.19-56.503-2.825-71.348-3.957c15.889-21.961,56.332-55.89,154.426-55.89c8.632,0,17.1,0.267,25.17,0.792
	c5.845,0.364,10.908-4.055,11.289-9.909c0.381-5.853-4.055-10.908-9.909-11.289c-8.527-0.555-17.459-0.837-26.551-0.837
	c-51.289,0-93.784,8.827-126.303,26.236c-30.329,16.236-45.476,36.433-52.839,50.511c-1.049,2.002-1.789,4.176-2.227,6.476
	c-0.31,0.997-0.478,2.058-0.478,3.158c0,0.245,0.018,0.486,0.035,0.728c-0.183,4.48,0.682,9.361,2.647,14.731
	c-13.859-4.648-38.924-15.657-48.464-36.629c-6.03-13.255-4.938-29.133,3.186-47.283c0.946,0.339,1.901,0.645,2.867,0.917
	c0.329,0.659,0.677,1.311,1.045,1.955c7.882,13.807,22.29,21.445,38.941,21.444c5.316,0,10.863-0.78,16.497-2.386
	c27.74-7.906,54.99-36.102,53.335-81.266c-0.168-4.583-3.259-8.542-7.664-9.815c-4.406-1.272-9.132,0.425-11.72,4.211
	c-0.155,0.226-13.973,20.022-34.502,18.753c4.045-35.475,43.706-44.218,45.392-44.57c4.495-0.91,7.898-4.603,8.438-9.158
	c0.541-4.554-1.903-8.941-6.059-10.878C85.66,77.782,38.908,95.768,15.849,124.44c-19.034,23.667-21.096,52.361-5.252,73.102
	C11.557,198.801,12.587,199.98,13.649,201.124z M408.971,113.241c30.807-5.114,56.581,7.05,70.626,24.514
	c12.695,15.784,14.628,34.191,4.927,46.891c-1.627,2.129-3.495,3.954-5.552,5.425c-3.134,2.241-6.732,3.661-10.401,4.106
	c-9.969,1.206-21.487-4.822-24.752-21.015c-0.001-0.004-0.002-0.01-0.003-0.015c-0.368-1.812-0.624-3.722-0.762-5.691
	c-1.591-22.321-13.065-40.872-33.181-53.649C409.571,113.616,409.272,113.427,408.971,113.241z M426.915,214.535
	c-13.943-3.975-27.701-15.472-34.166-33.716c9.355,5.2,20.721,8.5,33.348,6.944c5.276,13.016,14.581,21.095,24.791,24.99
	C443.846,216.949,434.603,216.726,426.915,214.535z M197.895,318.858c-41.786,13.533-63.361,13.494-70.039,12.987
	c-3.846-3.586-7.482-7.387-10.809-11.355c-10.425-12.44-15.885-21.198-18.714-27.186c14.822,1.155,40.403,2.878,74.043,4.131
	C176.082,308.665,185.911,317.134,197.895,318.858z M198.738,369.891c-16.117-4.429-31.067-10.658-44.398-18.467
	c13.314-1.99,30.946-5.962,53.572-13.491C205.392,347.557,202.542,358.137,198.738,369.891z M219.573,374.508
	c4.136-12.998,7.179-24.638,9.732-34.416c1.505-5.764,2.926-11.208,4.319-15.96c0.859-2.939,1.679-5.499,2.503-7.816
	c5.319-14.923,10.215-17.331,19.871-17.331c11.437,0,16.014,3.469,22.365,25.155c1.391,4.747,2.814,10.192,4.319,15.957
	c2.553,9.778,5.596,21.418,9.732,34.416c-11.943,2.01-24.145,3.028-36.416,3.028C243.712,377.541,231.507,376.521,219.573,374.508z
	 M340.454,297.397c32.881-1.235,58.185-2.935,73.215-4.103c-2.828,5.989-8.29,14.752-18.723,27.202
	c-3.271,3.91-6.907,7.709-10.803,11.345c-6.808,0.512-28.317,0.507-69.816-12.908C326.594,317.402,336.697,308.83,340.454,297.397z
	 M313.251,369.898c-3.805-11.756-6.654-22.336-9.176-31.963c22.62,7.545,40.198,11.541,53.481,13.544
	C344.249,359.263,329.33,365.474,313.251,369.898z M299.999,287.543c0-5.729,4.661-10.391,10.39-10.391
	c5.617,0,10.279,4.555,10.393,10.156c0.002,0.091,0.005,0.183,0.01,0.274c-0.022,5.717-4.68,10.362-10.401,10.362
	c-5.577,0-10.235-4.533-10.382-10.105c-0.002-0.069-0.004-0.138-0.007-0.207v-0.089H299.999z M202.419,277.152
	c5.729,0,10.39,4.662,10.39,10.391v0.102c-0.003,0.065-0.005,0.131-0.007,0.195c-0.154,5.572-4.811,10.105-10.382,10.105
	c-5.692,0-10.33-4.606-10.39-10.339c0.001-0.034,0.002-0.068,0.003-0.102c0-0.007,0.002-0.015,0.002-0.022s-0.001-0.016,0-0.023
	c0.001-0.041,0.003-0.084,0.004-0.125C192.146,281.718,196.802,277.152,202.419,277.152z M119.25,180.818
	c-6.464,18.244-20.223,29.743-34.166,33.717c-7.688,2.19-16.93,2.413-23.973-1.783c10.209-3.895,19.515-11.973,24.79-24.988
	C98.529,189.321,109.893,186.02,119.25,180.818z M32.401,137.755c11.847-14.731,32.036-25.691,56.557-25.691
	c4.55,0,9.247,0.377,14.069,1.178c-0.3,0.185-0.601,0.375-0.902,0.565c-20.116,12.776-31.59,31.329-33.182,53.662
	c-0.137,1.956-0.393,3.866-0.76,5.678c-0.001,0.004-0.002,0.01-0.003,0.015c-3.265,16.193-14.777,22.22-24.751,21.015
	c-3.671-0.445-7.268-1.865-10.4-4.104c-2.058-1.473-3.927-3.299-5.553-5.425C17.774,171.946,19.707,153.539,32.401,137.755z"/>
</svg>