<?xml version="1.0" encoding="iso-8859-1"?>
<!-- Uploaded to: SVG Repo, www.svgrepo.com, Generator: SVG Repo Mixer Tools -->
<svg height="800px" width="800px" version="1.1" id="Layer_1" xmlns="http://www.w3.org/2000/svg" xmlns:xlink="http://www.w3.org/1999/xlink" 
	 viewBox="0 0 512.003 512.003" xml:space="preserve">
<path style="fill:#F0C419;" d="M465.239,68.589v0.482c0,14.157-11.478,25.635-25.635,25.635h-7.052v-13.15
	c0-7.159-5.809-12.968-12.968-12.968h-17.608V22.366l22.581,5.541c10.963,3.204,21.134,7.759,28.561,14.318
	S465.239,57.347,465.239,68.589z"/>
<path style="fill:#FBB0AD;" d="M403.991,213.525c8.734,22.463,5.83,47.755-7.781,67.656c-13.611,19.891-36.127,31.776-60.229,31.776
	h-17.683h-2.572H263.17h-16.708c17.426,0,36.909-17.833,36.909-39.824c0-10.985-4.866-20.941-11.917-28.153
	c-7.052-7.202-16.279-11.66-24.992-11.66h-6.098c-108.97,0-137.156,30.768-140.607,70.41c0.75-9.377,2.669-18.433,5.594-27.017
	c15.068-44.197,56.918-75.983,106.216-75.983h35.184c19.751,0,37.649,8.006,50.595,20.952
	c12.946,12.946,20.952,30.822,20.952,50.584h17.094c10.728,0,20.962-5.026,27.082-13.836c6.248-8.97,7.555-19.987,3.601-30.158
	L303.584,77.945c-6.087-15.647-4.062-33.255,5.412-47.112c0.343-0.493,0.686-0.975,1.04-1.458
	c12.41-16.847,34.798-22.956,54.378-15.593l37.563,8.584v46.222h-42.107c-4.651,0-7.234,2.765-8.359,4.405
	c-1.136,1.65-2.776,5.058-1.082,9.399L403.991,213.525z"/>
<path style="fill:#FBCDCB;" d="M170.64,312.957h-31.347H99.372c0-0.739,0.011-1.468,0.021-2.197c0-0.289,0.011-0.589,0.021-0.879
	c0-0.118,0-0.236,0.011-0.354c0.011-0.568,0.032-1.125,0.064-1.683c0-0.225,0.011-0.439,0.032-0.664
	c0.032-0.793,0.086-1.575,0.15-2.368c0.021-0.364,0.054-0.729,0.086-1.082c3.451-39.642,31.636-70.41,140.607-70.41h6.098
	c8.713,0,17.94,4.458,24.992,11.66c7.052,7.213,11.917,17.169,11.917,28.153c0,21.991-19.483,39.824-36.909,39.824h-45.054
	L170.64,312.957L170.64,312.957z"/>
<g>
	<path style="fill:#FBB0AD;" d="M246.462,312.957h16.708c0,17.051-13.825,30.876-30.886,30.876
		c-17.051,0-30.876-13.825-30.876-30.876H246.462z"/>
	<path style="fill:#FBB0AD;" d="M105.341,276.712h0.011c-2.926,8.584-4.844,17.64-5.594,27.017
		c-0.032,0.354-0.064,0.718-0.086,1.082c-0.064,0.793-0.118,1.575-0.15,2.368c-0.021,0.225-0.032,0.439-0.032,0.664
		c-0.032,0.557-0.054,1.115-0.064,1.683c-0.011,0.118-0.011,0.236-0.011,0.354c-0.011,0.289-0.021,0.579-0.021,0.879
		c-0.011,0.729-0.021,1.457-0.021,2.197h-52.61c0-0.118,0-0.236,0-0.354c0-19.794,16.043-35.891,35.88-35.891H105.341z"/>
</g>
<path d="M46.761,323.674h52.61h92.726c2.906,10.888,10.131,20.026,19.719,25.47l-57.694,57.693
	c-3.065,3.065-3.982,7.674-2.323,11.679c1.659,4.005,5.566,6.616,9.901,6.616h59.865v76.155c0,5.919,4.798,10.717,10.717,10.717
	c5.919,0,10.717-4.798,10.717-10.717v-76.155h40.337l20.953,20.953c2.093,2.093,4.835,3.14,7.578,3.139
	c2.742,0,5.486-1.047,7.578-3.139c4.185-4.185,4.185-10.97,0-15.156l-24.092-24.092c-2.009-2.009-4.736-3.139-7.578-3.139H243
	v-50.554c14.339-3.826,25.651-15.133,29.479-29.47h63.501c27.638,0,53.461-13.622,69.076-36.443
	c15.606-22.82,18.941-51.825,8.923-77.59c-0.023-0.057-0.045-0.113-0.068-0.168l-21.115-51.693
	c-2.238-5.48-8.494-8.106-13.974-5.869s-8.106,8.494-5.869,13.974l21.079,51.606c7.415,19.147,4.923,40.688-6.668,57.639
	c-11.616,16.976-30.825,27.111-51.385,27.111h-51.33c5.772-8.112,9.437-18.075,9.437-29.107c0-13.112-5.317-25.771-14.977-35.652
	c-9.259-9.456-21.16-14.879-32.649-14.879h-6.098c-39.017,0-69.734,3.868-93.025,11.754c17.716-14.471,40.229-22.91,64.228-22.91
	h35.184c16.253,0,31.529,6.326,43.017,17.813s17.813,26.759,17.813,43.006c0,5.919,4.798,10.717,10.717,10.717h17.094
	c14.449,0,27.864-6.893,35.876-18.427c8.326-11.953,10.073-26.593,4.796-40.167c-0.03-0.076-0.061-0.153-0.092-0.229L313.529,73.952
	c-4.752-12.317-3.142-26.167,4.265-37c0.29-0.419,0.581-0.827,0.869-1.22c9.408-12.772,26.668-17.674,41.977-11.918
	c0.451,0.169,0.914,0.309,1.385,0.417l29.234,6.68v26.961h-31.39c-6.978,0-13.246,3.302-17.187,9.045
	c-3.974,5.772-4.789,12.834-2.239,19.37c0.02,0.053,0.042,0.106,0.063,0.158l9.932,24.315c1.697,4.153,5.7,6.667,9.925,6.667
	c1.35,0,2.722-0.257,4.049-0.799c5.479-2.238,8.106-8.494,5.869-13.974l-9.537-23.349h41.234h17.608c1.241,0,2.251,1.01,2.251,2.252
	v13.15c0,5.919,4.798,10.717,10.717,10.717h7.052c20.045,0,36.352-16.307,36.352-36.352v-0.482c0-13.598-5.296-25.17-15.743-34.396
	c-7.894-6.971-18.879-12.547-32.649-16.572c-0.15-0.044-0.301-0.085-0.452-0.122l-22.581-5.541c-0.025-0.005-0.05-0.008-0.076-0.014
	c-0.031-0.008-0.059-0.019-0.09-0.026l-36.892-8.431c-24.066-8.696-51.14-0.73-66.078,19.548c-0.407,0.556-0.803,1.111-1.245,1.748
	c-11.473,16.78-13.922,38.105-6.553,57.045c0.03,0.076,0.061,0.153,0.092,0.228l62.439,150.202
	c2.598,6.78,1.708,14.078-2.455,20.055c-4.016,5.782-10.85,9.233-18.28,9.233h-7.064c-2.316-17.909-10.424-34.466-23.403-47.445
	c-15.535-15.535-36.194-24.091-58.173-24.091h-35.184c-50.018,0-94.721,30.235-113.602,75.983H82.643
	c-25.694,0-46.597,20.909-46.597,46.608v0.354C36.044,318.875,40.842,323.674,46.761,323.674z M412.693,36.031l9.077,2.228
	c10.616,3.125,18.775,7.162,24.253,11.999c5.798,5.121,8.499,10.945,8.499,18.33v0.482c0,6.962-4.794,12.825-11.253,14.463v-1.977
	c0-13.061-10.625-23.686-23.685-23.686h-6.891V36.031z M187.574,403.698l33.992-33.992v33.992H187.574z M232.284,333.115
	c-7.175,0-13.47-3.78-17.043-9.442h31.222h2.873C245.761,329.336,239.463,333.115,232.284,333.115z M246.462,244.035
	c5.679,0,12.159,3.155,17.328,8.435c5.715,5.846,8.864,13.184,8.864,20.661c0,15.676-14.401,29.107-26.192,29.107h-65.106v-14.093
	c0-5.918-4.798-10.717-10.717-10.717s-10.717,4.799-10.717,10.717v14.093h-9.913v-14.093c0-5.918-4.798-10.717-10.717-10.717
	s-10.717,4.799-10.717,10.717v14.093h-17.894c2.117-17.991,9.997-30.205,25.32-39.389c20.827-12.484,55.94-18.815,104.363-18.815
	H246.462z M82.643,287.428h8.676c-1.031,4.886-1.76,9.833-2.184,14.811H59.711C63.667,293.513,72.457,287.428,82.643,287.428z"/>
<path d="M367.835,125.011c-5.48,2.239-8.106,8.495-5.869,13.975l1.359,3.325c1.697,4.153,5.7,6.667,9.925,6.667
	c1.35,0,2.723-0.257,4.049-0.799c5.48-2.238,8.106-8.494,5.869-13.975l-1.359-3.325C379.57,125.399,373.313,122.774,367.835,125.011
	z"/>
<path d="M350.288,52.127c5.919,0,10.717-4.799,10.717-10.717v-2.679c0-5.919-4.798-10.717-10.717-10.717
	s-10.717,4.798-10.717,10.717v2.679C339.572,47.328,344.369,52.127,350.288,52.127z"/>
</svg>