<?xml version="1.0" encoding="iso-8859-1"?>
<!-- Uploaded to: SVG Repo, www.svgrepo.com, Generator: SVG Repo Mixer Tools -->
<svg height="800px" width="800px" version="1.1" id="Layer_1" xmlns="http://www.w3.org/2000/svg" xmlns:xlink="http://www.w3.org/1999/xlink" 
	 viewBox="0 0 511.999 511.999" xml:space="preserve">
<path style="fill:#B5E06C;" d="M450.94,207.614c23.736,8.591,42.581,28.252,49.542,53.65c0.628,2.291,0.925,4.571,0.925,6.807
	c0,13.668-11.091,25.542-25.608,25.542h-92.596h-5.585h-144.78H126.583c36.094-24.044,74.742-43.716,115.121-58.717
	c40.378-15.001,82.496-25.344,125.54-30.707c6.906-0.859,13.866-1.3,20.828-1.3h8.514c0-15.123,12.258-27.381,27.381-27.381
	c15.123,0,27.381,12.258,27.381,27.381C451.348,204.508,451.204,206.073,450.94,207.614z"/>
<path d="M442.185,304.206h2.754c5.851,0,10.593-4.743,10.593-10.593s-4.743-10.593-10.593-10.593h-2.754
	c-5.851,0-10.593,4.743-10.593,10.593S436.334,304.206,442.185,304.206z"/>
<path d="M423.967,205.359c-5.851,0-10.593,4.743-10.593,10.593v9.087c0,5.851,4.743,10.593,10.593,10.593
	s10.593-4.743,10.593-10.593v-9.087C434.56,210.101,429.817,205.359,423.967,205.359z"/>
<path d="M0,293.613c0,5.851,4.743,10.593,10.593,10.593h115.99h95.661v32.286c0,5.851,4.743,10.593,10.593,10.593h16.499
	c5.851,0,10.593-4.743,10.593-10.593s-4.743-10.593-10.593-10.593h-5.906v-21.693h129.179v32.286
	c0,5.851,4.743,10.593,10.593,10.593h16.5c5.851,0,10.593-4.743,10.593-10.593s-4.743-10.593-10.593-10.593h-5.907v-21.693h17.091
	c5.851,0,10.593-4.743,10.593-10.593s-4.743-10.593-10.593-10.593h-33.269H163.842c26.073-14.933,53.381-27.727,81.551-38.193
	c7.811-2.903,15.693-5.62,23.629-8.162v13.949c0,5.851,4.743,10.593,10.593,10.593s10.593-4.743,10.593-10.593V230.34
	c5.945-1.644,11.918-3.18,17.914-4.623v15.49c0,5.851,4.743,10.593,10.593,10.593s10.593-4.743,10.593-10.593v-20.159
	c6.146-1.225,12.314-2.332,18.498-3.344v16.343c0,5.851,4.743,10.593,10.593,10.593s10.593-4.743,10.593-10.593v-19.395
	c6.357-0.772,12.773-1.171,19.079-1.171h8.515c5.851,0,10.593-4.743,10.593-10.593c0-9.257,7.531-16.788,16.788-16.788
	c9.257,0,16.788,7.531,16.788,16.788c0,0.972-0.084,1.933-0.255,2.935c-0.007,0.041-0.01,0.083-0.016,0.124
	c-0.024,0.155-0.041,0.308-0.059,0.463c-0.019,0.163-0.036,0.325-0.047,0.49c-0.012,0.168-0.018,0.337-0.021,0.505
	c-0.001,0.073-0.01,0.146-0.01,0.218c0,0.072,0.01,0.141,0.011,0.212c0.004,0.213,0.015,0.425,0.032,0.636
	c0.013,0.159,0.029,0.317,0.049,0.474c0.021,0.168,0.047,0.335,0.076,0.502c0.034,0.196,0.072,0.39,0.118,0.583
	c0.029,0.121,0.059,0.239,0.092,0.359c0.061,0.227,0.128,0.45,0.203,0.671c0.03,0.086,0.061,0.171,0.093,0.255
	c0.09,0.24,0.185,0.478,0.292,0.71c0.032,0.07,0.067,0.139,0.101,0.208c0.114,0.236,0.235,0.467,0.365,0.693
	c0.041,0.071,0.085,0.14,0.127,0.21c0.132,0.215,0.269,0.427,0.415,0.631c0.056,0.079,0.116,0.156,0.175,0.234
	c0.143,0.189,0.289,0.374,0.445,0.553c0.073,0.085,0.15,0.166,0.227,0.249c0.154,0.166,0.31,0.328,0.475,0.484
	c0.085,0.081,0.173,0.158,0.26,0.236c0.171,0.151,0.344,0.3,0.524,0.44c0.086,0.067,0.174,0.131,0.262,0.195
	c0.199,0.146,0.401,0.285,0.61,0.416c0.074,0.047,0.149,0.091,0.225,0.137c0.237,0.142,0.481,0.274,0.73,0.397
	c0.055,0.028,0.11,0.054,0.166,0.081c0.275,0.13,0.556,0.248,0.844,0.355c0.024,0.01,0.047,0.021,0.071,0.03
	c20.986,7.595,37.034,24.975,42.93,46.488c0.364,1.328,0.549,2.678,0.549,4.008c0,8.242-6.735,14.949-15.015,14.949
	c-5.851,0-10.593,4.743-10.593,10.593s4.743,10.593,10.593,10.593c19.962,0,36.201-16.211,36.201-36.135
	c0-3.221-0.438-6.452-1.302-9.606c-7.012-25.582-24.997-46.691-48.827-57.783c-1.148-19.915-17.707-35.767-37.905-35.767
	c-17.266,0-31.867,11.587-36.463,27.391c-7.141,0.023-14.393,0.479-21.571,1.372c-43.632,5.437-86.671,15.965-127.919,31.29
	c-40.229,14.946-78.761,34.477-114.593,58.053H10.593C4.743,283.02,0,287.762,0,293.613z"/>
</svg>