<?xml version="1.0" encoding="iso-8859-1"?>
<!-- Uploaded to: SVG Repo, www.svgrepo.com, Generator: SVG Repo Mixer Tools -->
<svg height="800px" width="800px" version="1.1" id="Layer_1" xmlns="http://www.w3.org/2000/svg" xmlns:xlink="http://www.w3.org/1999/xlink" 
	 viewBox="0 0 512 512" xml:space="preserve">
<path style="fill:#FB7B76;" d="M231.269,501.516v-43.009h-49.46V305.105v-39.203V84.685c0-40.977,33.213-74.202,74.19-74.202
	c20.494,0,39.031,8.301,52.46,21.731s21.731,31.988,21.731,52.471v181.218v39.203v153.402h-49.46v43.009h-49.461V501.516z"/>
<path d="M417.638,447.486c11.98,0,23.252-4.666,31.744-13.146c8.478-8.476,13.147-19.75,13.147-31.746v-20.794
	c0-5.79-4.695-10.484-10.484-10.484c-5.789,0-10.484,4.694-10.484,10.484v20.794c0,6.394-2.488,12.402-6.999,16.913
	c-4.528,4.521-10.539,7.01-16.925,7.01c-15.96,0-28.944-12.984-28.944-28.944v-44.45c0-15.614-6.084-30.304-17.135-41.369
	c-8.536-8.536-19.25-14.093-30.885-16.187v-19.183h16.397c5.789,0,10.484-4.694,10.484-10.484s-4.695-10.484-10.484-10.484h-16.397
	V84.684c0-22.623-8.807-43.89-24.801-59.884C299.879,8.807,278.616,0,255.999,0c-46.689,0-84.674,37.989-84.674,84.684v170.734
	h-16.398c-5.79,0-10.484,4.694-10.484,10.484c0,5.79,4.694,10.484,10.484,10.484h16.398v19.195
	c-27.271,4.957-48.02,28.865-48.02,57.544v44.45c0,7.732-3.011,15.001-8.477,20.467c-5.466,5.467-12.735,8.477-20.466,8.477
	c-13.192,0-23.924-10.732-23.924-23.924v-20.794c0-5.79-4.694-10.484-10.484-10.484s-10.484,4.694-10.484,10.484v20.794
	c0,24.753,20.138,44.891,44.891,44.891c13.332,0,25.866-5.192,35.293-14.618s14.618-21.961,14.618-35.294v-44.45
	c0-17.06,11.44-31.498,27.052-36.046v141.428c0,5.79,4.694,10.484,10.484,10.484c5.79,0,10.484-4.694,10.484-10.484V305.105V84.684
	c0-35.134,28.579-63.717,63.706-63.717c17.015,0,33.013,6.627,45.047,18.659c12.033,12.034,18.66,28.036,18.66,45.058v220.421
	v153.402c0,5.79,4.695,10.484,10.484,10.484c5.789,0,10.484-4.694,10.484-10.484V317.065c6.008,1.737,11.511,4.971,16.054,9.514
	c7.092,7.101,10.997,16.529,10.997,26.547v44.45C367.726,425.096,390.116,447.486,417.638,447.486z"/>
<path d="M231.271,512c5.79,0,10.484-4.694,10.484-10.484V305.105c0-5.79-4.694-10.484-10.484-10.484s-10.484,4.694-10.484,10.484
	v196.411C220.787,507.306,225.48,512,231.271,512z"/>
<path d="M270.246,501.516c0,5.79,4.695,10.484,10.484,10.484s10.484-4.694,10.484-10.484v-64.879c0-5.79-4.695-10.484-10.484-10.484
	s-10.484,4.694-10.484,10.484V501.516z"/>
<path d="M270.246,407.069c0,5.79,4.695,10.484,10.484,10.484s10.484-4.694,10.484-10.484v-6.989c0-5.79-4.695-10.484-10.484-10.484
	s-10.484,4.694-10.484,10.484V407.069z"/>
<path d="M280.729,380.995c5.789,0,10.484-4.694,10.484-10.484v-65.406c0-5.79-4.695-10.484-10.484-10.484
	s-10.484,4.694-10.484,10.484v65.406C270.246,376.301,274.94,380.995,280.729,380.995z"/>
<path d="M235.303,203.712v-17.204c0-5.79-4.694-10.484-10.484-10.484c-5.79,0-10.484,4.694-10.484,10.484v17.204
	c0,5.79,4.694,10.484,10.484,10.484C230.609,214.196,235.303,209.502,235.303,203.712z"/>
<path d="M280.729,176.025c-5.789,0-10.484,4.694-10.484,10.484v17.204c0,5.79,4.695,10.484,10.484,10.484
	s10.484-4.694,10.484-10.484v-17.204C291.213,180.718,286.52,176.025,280.729,176.025z"/>
</svg>