<?xml version="1.0" encoding="utf-8"?>
<!-- Generator: Adobe Illustrator 24.0.1, SVG Export Plug-In . SVG Version: 6.00 Build 0)  -->
<svg version="1.1" id="Capa_1" xmlns:sketch="http://www.bohemiancoding.com/sketch/ns"
	 xmlns="http://www.w3.org/2000/svg" xmlns:xlink="http://www.w3.org/1999/xlink" x="0px" y="0px" viewBox="0 0 51.7 51.7"
	 style="enable-background:new 0 0 51.7 51.7;" xml:space="preserve">
<style type="text/css">
	.st0{fill-rule:evenodd;clip-rule:evenodd;fill:#16D9B5;}
</style>
<title>phone</title>
<desc>Created with Sketch Beta.</desc>
<g id="Page-1" sketch:type="MSPage">
	<g id="Icon-Set-Filled" transform="translate(-258.000000, -309.000000)" sketch:type="MSLayerGroup">
		<path id="phone" sketch:type="MSShapeGroup" class="st0" d="M307.1,315.6l-4.6-4.6c-1.3-1.3-3.4-1.3-4.6,0l-6.9,9.2
			c-1.1,1.6-1.3,3.3,0,4.6l2.8,2.8c-2.1,2.8-4.6,5.9-7.5,8.7c-3.2,3.2-6.8,6.1-10,8.5l-2.7-2.7c-1.3-1.3-3.1-1.1-4.6,0l-9.2,6.9
			c-1.6,1.1-1.3,3.3,0,4.6l4.6,4.6c2.6,2.6,5.9,1.7,9.3,0c0,0,10.2-5.7,19-14.4c8.2-8.2,14.6-19,14.6-19
			C308.4,321.2,309.7,318.1,307.1,315.6"/>
	</g>
</g>
</svg>
