<?xml version="1.0" encoding="iso-8859-1"?>
<!-- Uploaded to: SVG Repo, www.svgrepo.com, Generator: SVG Repo Mixer Tools -->
<svg height="800px" width="800px" version="1.1" id="Layer_1" xmlns="http://www.w3.org/2000/svg" xmlns:xlink="http://www.w3.org/1999/xlink" 
	 viewBox="0 0 511.999 511.999" xml:space="preserve">
<path style="fill:#FFF3E6;" d="M356.735,467.577v33.779H307.84v-82.674C334.844,418.681,356.735,440.573,356.735,467.577z"/>
<path style="fill:#FBCDCB;" d="M353.495,11.618c25.155,8.141,16.294,55.198-6.15,109.053c-9.096,21.82-17.838,41.343-25.991,56.754
	c-11.641-6.48-24.695-11.276-38.68-13.985c2.45-16.989,6.704-37.419,11.959-59.805C307.981,46.822,328.34,3.488,353.495,11.618z"/>
<g>
	<path style="fill:#FFF3E6;" d="M321.354,177.425c32.789,18.239,54.456,49.79,54.456,85.655c0,45.266-34.486,83.64-82.273,97.071
		c-11.806,3.323-24.423,5.125-37.537,5.125s-25.731-1.803-37.537-5.125c-47.788-13.431-82.273-51.805-82.273-97.071
		c0-35.864,21.667-67.416,54.456-85.655c11.641-6.48,24.695-11.276,38.68-13.985c8.578-1.661,17.508-2.545,26.674-2.545
		s18.097,0.883,26.674,2.545C296.659,166.149,309.713,170.944,321.354,177.425z"/>
	<path style="fill:#FFF3E6;" d="M255.999,501.355h-51.841v-82.674v-22.775c0-13.856,5.443-26.45,14.304-35.746v-0.012
		c11.806,3.323,24.423,5.125,37.537,5.125s25.731-1.803,37.537-5.125v0.012c8.86,9.296,14.304,21.89,14.304,35.746v22.775v82.674
		H255.999z"/>
</g>
<path style="fill:#FBCDCB;" d="M217.367,103.634c5.255,22.385,9.508,42.815,11.959,59.805c-13.985,2.71-27.04,7.505-38.68,13.985
	c-8.153-15.411-16.895-34.934-25.991-56.754c-22.445-53.856-31.304-100.912-6.15-109.053
	C183.658,3.488,204.018,46.822,217.367,103.634z"/>
<path style="fill:#FFF3E6;" d="M204.16,418.681v82.674h-48.895v-33.779C155.264,440.573,177.155,418.681,204.16,418.681z"/>
<path d="M193.516,409.011c-27.766,5.034-48.895,29.371-48.895,58.566v23.136h-24.502c-5.878,0-10.643,4.765-10.643,10.643
	s4.765,10.643,10.643,10.643H391.88c5.878,0,10.643-4.765,10.643-10.643s-4.765-10.643-10.643-10.643h-24.502v-23.136
	c0-29.195-21.129-53.532-48.895-58.566v-13.103c0-10.751-2.737-21.131-7.85-30.318c45.905-18.219,75.819-57.913,75.819-102.511
	c0-8.413-1.075-16.804-3.193-24.94c-1.483-5.689-7.295-9.097-12.983-7.617c-5.689,1.482-9.099,7.295-7.617,12.983
	c1.664,6.385,2.507,12.971,2.507,19.574c0,39.406-29.943,74.298-74.512,86.826c-11.145,3.137-22.803,4.727-34.654,4.727
	c-11.85,0-23.509-1.59-34.657-4.728c-44.567-12.526-74.509-47.418-74.509-86.824c0-30.749,18.313-59.292,48.989-76.356
	c10.882-6.057,22.835-10.376,35.527-12.835c16.11-3.121,33.192-3.12,49.299,0c12.693,2.46,24.646,6.779,35.531,12.837
	c4.63,2.576,9.067,5.475,13.187,8.616c4.675,3.563,11.352,2.664,14.917-2.011c3.564-4.675,2.664-11.353-2.011-14.917
	c-2.243-1.709-4.569-3.349-6.95-4.927c6.434-12.959,13.629-29.009,21.847-48.721c21.154-50.759,27.201-86.66,17.972-106.705
	c-3.759-8.167-10.111-13.896-18.374-16.57c-8.257-2.668-16.758-1.744-24.584,2.671c-19.209,10.839-35.33,43.487-47.913,97.04
	c-4.638,19.761-8.08,36.268-10.448,50.103c-11.797-1.386-23.849-1.386-35.647,0c-2.367-13.835-5.809-30.343-10.448-50.105
	c-12.583-53.551-28.703-86.2-47.912-97.038c-7.827-4.416-16.329-5.339-24.588-2.67c-8.258,2.673-14.61,8.402-18.369,16.569
	c-9.229,20.045-3.181,55.946,17.973,106.706c8.216,19.708,15.409,35.755,21.843,48.715c-32.194,21.29-51.128,54.134-51.128,89.598
	c0,44.599,29.914,84.292,75.819,102.511c-5.112,9.187-7.849,19.567-7.849,30.318v13.102H193.516z M342.644,22.701
	c2.689-1.518,4.954-1.803,7.574-0.957c2.624,0.849,4.296,2.41,5.588,5.217c6.265,13.609-0.57,47.109-18.285,89.614
	c-7.862,18.861-14.727,34.208-20.837,46.58c-7.027-3.198-14.366-5.807-21.952-7.839c2.29-13.467,5.671-29.691,10.262-49.248
	C315.531,61.223,329.606,30.057,342.644,22.701z M156.193,26.962c1.293-2.808,2.964-4.368,5.585-5.216
	c2.624-0.848,4.887-0.562,7.578,0.955c13.038,7.357,27.113,38.523,37.65,83.365c4.592,19.559,7.972,35.783,10.262,49.25
	c-7.587,2.031-14.926,4.641-21.952,7.838c-6.109-12.372-12.974-27.717-20.837-46.578C156.763,74.071,149.928,40.57,156.193,26.962z
	 M165.907,467.577c0-17.399,11.68-32.11,27.608-36.733v59.869h-27.608V467.577z M346.091,467.577v23.136h-27.608v-59.869
	C334.411,435.466,346.091,450.178,346.091,467.577z M289.629,372.109c4.912,6.917,7.567,15.18,7.567,23.798v94.805h-30.554v-64.761
	c0-5.878-4.765-10.643-10.643-10.643c-5.878,0-10.643,4.765-10.643,10.643v64.761h-30.554v-94.805
	c0-8.619,2.656-16.881,7.567-23.798c10.932,2.516,22.208,3.808,33.629,3.808C267.421,375.917,278.698,374.625,289.629,372.109z"/>
<path d="M350.311,199.256c-4.686,3.547-5.61,10.223-2.063,14.91c0.698,0.923,1.392,1.878,2.063,2.838
	c2.069,2.964,5.376,4.552,8.736,4.552c2.103,0,4.228-0.622,6.083-1.917c4.82-3.365,6-10.001,2.635-14.82
	c-0.826-1.184-1.683-2.362-2.545-3.501C361.674,196.632,354.998,195.709,350.311,199.256z"/>
<path d="M251.65,267.02c-4.334,1.94-18.477,9.255-18.477,21.897c0,5.878,4.765,10.643,10.643,10.643
	c5.365,0,9.803-3.969,10.537-9.131c0.375-0.402,0.955-0.89,1.645-1.396c0.692,0.507,1.272,0.994,1.647,1.396
	c0.734,5.162,5.172,9.131,10.537,9.131c5.878,0,10.643-4.765,10.643-10.643c0-12.641-14.143-19.956-18.477-21.897
	C257.582,265.781,254.417,265.781,251.65,267.02z"/>
<path d="M182.782,255.597v3.77c0,5.878,4.765,10.643,10.643,10.643c5.878,0,10.643-4.765,10.643-10.643v-3.77
	c0-5.878-4.765-10.643-10.643-10.643C187.547,244.954,182.782,249.719,182.782,255.597z"/>
<path d="M304.159,255.597v3.77c0,5.878,4.765,10.643,10.643,10.643s10.643-4.765,10.643-10.643v-3.77
	c0-5.878-4.765-10.643-10.643-10.643S304.159,249.719,304.159,255.597z"/>
</svg>